{"title":"Bondi Rescue S10E05&amp;07 PDTV x264-CBFM","uid":11932159,"size":461609562,"categoryP":"video","categoryS":"tv_shows","magnet":"?xt=urn:btih:eacb5a9f10e92d4e1c87a6f66ecefdfcfd716a13&amp;dn=Bondi+Rescue+S10E05%26amp%3B07+PDTV+x264-CBFM&amp;tr=udp%3A%2F%2Ftracker.openbittorrent.com%3A80&amp;tr=udp%3A%2F%2Fopen.demonii.com%3A1337&amp;tr=udp%3A%2F%2Ftracker.coppersurfer.tk%3A6969&amp;tr=udp%3A%2F%2Fexodus.desync.com%3A6969","seeders":1,"leechers":0,"uploader":"toots2boots","files":7,"time":1431835766,"description":"Bondi Rescue S10E05&amp;07 PDTV x264-CBFM\nThe Bondi lifeguards perform around five thousand rescues over the summer period. They also deal with other incidents including lost children, shark scares, bluebottle stings, injuries, sexual deviants, drunk beach goers and thieves on the beach. Every once in a while, celebrities also make appearances on their shores.\n\nGeneral\nComplete name                            : G:Torrent uploadBondi.Rescue.S10E05&amp;07.PDTV.x264-CBFMBondi Rescue S10E05&amp;07 PDTV x264-CBFMBondi.Rescue.S10E05.PDTV.x264-CBFM.mp4\nFormat                                   : MPEG-4\nFormat profile                           : Base Media\nCodec ID                                 : isom\nFile size                                : 231 MiB\nDuration                                 : 21mn 17s\nOverall bit rate mode                    : Variable\nOverall bit rate                         : 1 517 Kbps\nEncoded date                             : UTC 2015-04-19 17:58:07\nTagged date                              : UTC 2015-04-19 17:58:07\n\nVideo\nID                                       : 1\nFormat                                   : AVC\nFormat/Info                              : Advanced Video Codec\nFormat profile                           : &lt;a class=&quot;__cf_email__&quot; href=&quot;/cdn-cgi/l/email-protection&quot; data-cfemail=&quot;c885a9a1a68884fbe6f9&quot;&gt;[email&amp;#160;protected]&lt;/a&gt;&lt;script data-cfhash='f9e31' type=&quot;text/javascript&quot;&gt;\n/* &lt;![CDATA[ */!function(){try{var t=&quot;currentScript&quot;in document?document.currentScript:function(){for(var t=document.getElementsByTagName(&quot;script&quot;),e=t.length;e--;)if(t[e].getAttribute(&quot;data-cfhash&quot;))return t[e]}();if(t&amp;&amp;t.previousSibling){var e,r,n,i,c=t.previousSibling,a=c.getAttribute(&quot;data-cfemail&quot;);if(a){for(e=&quot;&quot;,r=parseInt(a.substr(0,2),16),n=2;a.length-n;n+=2)i=parseInt(a.substr(n,2),16)^r,e+=String.fromCharCode(i);e=document.createTextNode(e),c.parentNode.replaceChild(e,c)}t.parentNode.removeChild(t);}}catch(u){}}()/* ]]&gt; */&lt;/script&gt;\nFormat settings, CABAC                   : Yes\nFormat settings, ReFrames                : 5 frames\nCodec ID                                 : avc1\nCodec ID/Info                            : Advanced Video Coding\nDuration                                 : 21mn 17s\nBit rate                                 : 1 362 Kbps\nMaximum bit rate                         : 6 652 Kbps\nWidth                                    : 720 pixels\nHeight                                   : 404 pixels\nDisplay aspect ratio                     : 16:9\nFrame rate mode                          : Constant\nFrame rate                               : 25.000 fps\nColor space                              : YUV\nChroma subsampling                       : 4:2:0\nBit depth                                : 8 bits\nScan type                                : Progressive\nBits/(Pixel*Frame)                       : 0.187\nStream size                              : 207 MiB (90%)\nWriting library                          : x264 core 146 r2538 121396c\nEncoding settings                        : cabac=1 / ref=5 / deblock=1:-2:-2 / analyse=0x1:0x111 / me=umh / subme=8 / psy=1 / psy_rd=1.00:0.00 / mixed_ref=1 / me_range=16 / chroma_me=1 / trellis=1 / 8x8dct=0 / cqm=0 / deadzone=21,11 / fast_pskip=1 / chroma_qp_offset=-2 / threads=12 / lookahead_threads=2 / sliced_threads=0 / nr=0 / decimate=1 / interlaced=0 / bluray_compat=0 / constrained_intra=0 / bframes=3 / b_pyramid=2 / b_adapt=2 / b_bias=0 / direct=3 / weightb=1 / open_gop=0 / weightp=2 / keyint=250 / keyint_min=25 / scenecut=40 / intra_refresh=0 / rc_lookahead=50 / rc=crf / mbtree=1 / crf=21.0 / qcomp=0.60 / qpmin=0 / qpmax=69 / qpstep=4 / ip_ratio=1.40 / aq=1:1.00\nEncoded date                             : UTC 2015-04-19 17:58:07\nTagged date                              : UTC 2015-04-19 17:58:12\n\nAudio\nID                                       : 2\nFormat                                   : AAC\nFormat/Info                              : Advanced Audio Codec\nFormat profile                           : LC\nCodec ID                                 : 40\nDuration                                 : 21mn 17s\nBit rate mode                            : Variable\nBit rate                                 : 151 Kbps\nMaximum bit rate                         : 235 Kbps\nChannel(s)                               : 2 channels\nChannel positions                        : Front: L R\nSampling rate                            : 48.0 KHz\nCompression mode                         : Lossy\nStream size                              : 23.0 MiB (10%)\nEncoded date                             : UTC 2015-04-19 15:55:06\nTagged date                              : UTC 2015-04-19 17:58:12","torrent":{"xt":"urn:btih:eacb5a9f10e92d4e1c87a6f66ecefdfcfd716a13","amp;dn":"Bondi+Rescue+S10E05%26amp%3B07+PDTV+x264-CBFM","amp;tr":["udp%3A%2F%2Ftracker.openbittorrent.com%3A80","udp%3A%2F%2Fopen.demonii.com%3A1337","udp%3A%2F%2Ftracker.coppersurfer.tk%3A6969","udp%3A%2F%2Fexodus.desync.com%3A6969"],"infoHash":"eacb5a9f10e92d4e1c87a6f66ecefdfcfd716a13","infoHashBuffer":{"type":"Buffer","data":[234,203,90,159,16,233,45,78,28,135,166,246,110,206,253,252,253,113,106,19]},"announce":[],"urlList":[]}}